<svg xmlns="http://www.w3.org/2000/svg" viewBox="0 0 58.35 120.07"><defs><style>.cls-1{fill:#4b4dff;}</style></defs><title>Asset 4</title><g id="Layer_2" data-name="Layer 2"><g id="Layer_1-2" data-name="Layer 1"><path class="cls-1" d="M48.23,61.36l-6.69-15.2H18.16l-6.85,15.2H1.23L29.81,0,58.35,61.36ZM21.71,38.18H38.16l-6-13.47c-.35-.86-.71-1.84-1.09-3s-.75-2.36-1.13-3.73c-.32,1.29-.66,2.49-1,3.61s-.73,2.14-1.11,3.08Z"/><path class="cls-1" d="M50,73.83a29.31,29.31,0,0,0-8.61-5.2,26.35,26.35,0,0,0-9.53-1.73q-9.68,0-15.74,6.2T10,89.19q0,9.56,5.9,15.76a19.7,19.7,0,0,0,14.9,6.21,27.29,27.29,0,0,0,10-1.85,31.66,31.66,0,0,0,9.09-5.61v10.85a28.32,28.32,0,0,1-8.43,4.15,34.22,34.22,0,0,1-9.87,1.37,34.43,34.43,0,0,1-12.52-2.22A29.45,29.45,0,0,1,2.32,101.34a33.32,33.32,0,0,1,0-24.43A29.26,29.26,0,0,1,9,66.9a29.62,29.62,0,0,1,10.08-6.6,33.32,33.32,0,0,1,12.3-2.23,32.19,32.19,0,0,1,9.91,1.51,34.67,34.67,0,0,1,9.15,4.57Z"/><path class="cls-1" d="M32.6,102a5.83,5.83,0,0,1-5.83-5.82H29.5a3.1,3.1,0,1,0,6.2,0h2.72A5.83,5.83,0,0,1,32.6,102Z"/><rect class="cls-1" x="30.89" y="87.98" width="2.72" height="3.78"/><circle class="cls-1" cx="20.43" cy="86.6" r="4.1"/><circle class="cls-1" cx="45.04" cy="86.6" r="4.1"/></g></g></svg>